<svg id="Capa_1" enable-background="new 0 0 510 510" height="512" viewBox="0 0 510 510" width="512" xmlns="http://www.w3.org/2000/svg" xmlns:xlink="http://www.w3.org/1999/xlink"><linearGradient id="lg1"><stop offset="0" stop-color="#01d0fb"/><stop offset=".6075" stop-color="#26a6fe"/><stop offset="1" stop-color="#0182fc"/></linearGradient><linearGradient id="SVGID_1_" gradientUnits="userSpaceOnUse" x1="61.807" x2="464.873" xlink:href="#lg1" y1="30.27" y2="30.27"/><linearGradient id="lg2"><stop offset="0" stop-color="#01bffa"/><stop offset=".2539" stop-color="#1f9efc"/><stop offset=".5724" stop-color="#407afd"/><stop offset=".8326" stop-color="#5464ff"/><stop offset="1" stop-color="#5b5cff"/></linearGradient><linearGradient id="SVGID_2_" gradientUnits="userSpaceOnUse" x1="94.045" x2="595.931" xlink:href="#lg2" y1="43.56" y2="43.56"/><linearGradient id="SVGID_7_" gradientUnits="userSpaceOnUse" x1="94.045" x2="595.931" xlink:href="#lg2" y1="30.27" y2="30.27"/><linearGradient id="SVGID_8_" gradientTransform="matrix(1 0 0 -1 0 60.54)" gradientUnits="userSpaceOnUse" x1="61.807" x2="464.873" xlink:href="#lg1" y1="-419.19" y2="-419.19"/><linearGradient id="SVGID_9_" gradientTransform="matrix(1 0 0 -1 0 60.54)" gradientUnits="userSpaceOnUse" x1="94.045" x2="595.931" xlink:href="#lg2" y1="-405.9" y2="-405.9"/><linearGradient id="SVGID_14_" gradientTransform="matrix(1 0 0 -1 0 60.54)" gradientUnits="userSpaceOnUse" x1="94.045" x2="595.931" xlink:href="#lg2" y1="-419.19" y2="-419.19"/><linearGradient id="lg3"><stop offset="0" stop-color="#f8f6f7"/><stop offset=".1788" stop-color="#f8f6f7"/><stop offset="1" stop-color="#e7e6f5"/></linearGradient><linearGradient id="SVGID_15_" gradientUnits="userSpaceOnUse" x1="41.482" x2="486.953" xlink:href="#lg3" y1="255" y2="255"/><linearGradient id="lg4"><stop offset="0" stop-color="#f8f6f7"/><stop offset="1" stop-color="#d1ceeb"/></linearGradient><linearGradient id="SVGID_16_" gradientUnits="userSpaceOnUse" x1="28" x2="362.741" xlink:href="#lg4" y1="409.391" y2="409.391"/><linearGradient id="SVGID_17_" gradientUnits="userSpaceOnUse" x1="274" x2="552.352" xlink:href="#lg4" y1="255" y2="255"/><linearGradient id="SVGID_18_" gradientUnits="userSpaceOnUse" x1="43.048" x2="502.588" xlink:href="#lg1" y1="255" y2="255"/><linearGradient id="SVGID_19_" gradientUnits="userSpaceOnUse" x1="226.039" x2="475.139" xlink:href="#lg2" y1="255" y2="255"/><linearGradient id="SVGID_20_" gradientUnits="userSpaceOnUse" x1="92.324" x2="416.085" xlink:href="#lg3" y1="255" y2="255"/><linearGradient id="SVGID_21_" gradientUnits="userSpaceOnUse" x1="204.667" x2="375.1" xlink:href="#lg4" y1="255" y2="255"/><linearGradient id="SVGID_22_" gradientUnits="userSpaceOnUse" x1="102.5" x2="249.501" xlink:href="#lg4" y1="190.729" y2="190.729"/><linearGradient id="SVGID_23_" gradientUnits="userSpaceOnUse" x1="102.5" x2="249.501" xlink:href="#lg4" y1="319.271" y2="319.271"/><g><g><path d="m413.921 3.012-6.578 6.578c-7.649 7.649-20.05 7.649-27.698 0-7.649-7.649-20.05-7.649-27.699 0-7.649 7.649-20.05 7.649-27.699 0-7.649-7.649-20.05-7.649-27.699 0-7.649 7.649-20.05 7.649-27.699 0-7.649-7.649-20.05-7.649-27.699 0-7.649 7.649-20.05 7.649-27.699 0-7.649-7.649-20.05-7.649-27.699 0-7.649 7.649-20.05 7.649-27.699 0-7.649-7.649-20.05-7.649-27.699 0-7.649 7.649-20.05 7.649-27.699 0l-6.578-6.578c-4.016-4.016-10.527-4.016-14.542 0-2.446 2.446-3.498 5.958-2.8 9.346l9.925 48.182h332.678l9.925-48.182c.698-3.388-.354-6.9-2.8-9.346-4.015-4.016-10.526-4.016-14.542 0z" fill="url(#SVGID_1_)"/><g><g fill="url(#SVGID_2_)"><path d="m122.05 26.58c-5.52 0-10 4.48-10 10v23.96h20v-23.96c0-5.52-4.47-10-10-10z"/><path d="m175.23 26.58c-5.52 0-10 4.48-10 10v23.96h20v-23.96c0-5.52-4.47-10-10-10z"/><path d="m228.41 26.58c-5.52 0-10 4.48-10 10v23.96h20v-23.96c0-5.52-4.48-10-10-10z"/><path d="m281.59 26.58c-5.52 0-10 4.48-10 10v23.96h20v-23.96c0-5.52-4.48-10-10-10z"/><path d="m334.77 26.58c-5.53 0-10 4.48-10 10v23.96h20v-23.96c0-5.52-4.48-10-10-10z"/></g><path d="m428.463 3.01c-2.01-2.01-4.64-3.01-7.27-3.01s-5.27 1-7.27 3.01l-6.58 6.58c-4.54 4.54-10.77 6.39-16.67 5.54l-.325 1.367c-1.166 4.904-4.242 9.032-8.307 12.013-2.482 1.82-4.091 4.758-4.091 8.07v23.96h3.373 16.627 23.393l9.92-48.18c.7-3.39-.35-6.9-2.8-9.35z" fill="url(#SVGID_7_)"/></g></g><g><path d="m413.921 506.988-6.578-6.578c-7.649-7.649-20.05-7.649-27.698 0-7.649 7.649-20.05 7.649-27.699 0-7.649-7.649-20.05-7.649-27.699 0-7.649 7.649-20.05 7.649-27.699 0-7.649-7.649-20.05-7.649-27.699 0-7.649 7.649-20.05 7.649-27.699 0-7.649-7.649-20.05-7.649-27.699 0-7.649 7.649-20.05 7.649-27.699 0-7.649-7.649-20.05-7.649-27.699 0-7.649 7.649-20.05 7.649-27.699 0-7.649-7.649-20.05-7.649-27.699 0l-6.578 6.578c-4.016 4.016-10.527 4.016-14.542 0-2.446-2.446-3.498-5.958-2.8-9.346l9.925-48.182h332.678l9.925 48.182c.698 3.388-.354 6.9-2.8 9.346-4.015 4.016-10.526 4.016-14.542 0z" fill="url(#SVGID_8_)"/><g><g fill="url(#SVGID_9_)"><path d="m122.05 483.42c-5.52 0-10-4.48-10-10v-23.96h20v23.96c0 5.52-4.47 10-10 10z"/><path d="m175.23 483.42c-5.52 0-10-4.48-10-10v-23.96h20v23.96c0 5.52-4.47 10-10 10z"/><path d="m228.41 483.42c-5.52 0-10-4.48-10-10v-23.96h20v23.96c0 5.52-4.48 10-10 10z"/><path d="m281.59 483.42c-5.52 0-10-4.48-10-10v-23.96h20v23.96c0 5.52-4.48 10-10 10z"/><path d="m334.77 483.42c-5.53 0-10-4.48-10-10v-23.96h20v23.96c0 5.52-4.48 10-10 10z"/></g><path d="m428.463 506.99c-2.01 2.01-4.64 3.01-7.27 3.01s-5.27-1-7.27-3.01l-6.58-6.58c-4.54-4.54-10.77-6.39-16.67-5.54l-.325-1.367c-1.166-4.904-4.242-9.032-8.307-12.013-2.482-1.82-4.091-4.758-4.091-8.07v-23.96h3.373 16.627 23.393l9.92 48.18c.7 3.39-.35 6.9-2.8 9.35z" fill="url(#SVGID_14_)"/></g></g><path d="m59.958 255c0 63.602 4.542 124.454 12.829 180.509 2.015 13.631 13.718 23.721 27.497 23.721h309.431c13.779 0 25.482-10.09 27.497-23.721 8.288-56.055 12.83-116.907 12.83-180.509s-4.542-124.454-12.829-180.509c-2.015-13.631-13.718-23.721-27.497-23.721h-309.431c-13.779 0-25.482 10.09-27.497 23.721-8.288 56.055-12.83 116.907-12.83 180.509z" fill="url(#SVGID_15_)"/><path d="m286.812 421.896c6.907 0 12.505-5.599 12.505-12.505s-5.599-12.505-12.505-12.505h-63.625c-6.907 0-12.505 5.599-12.505 12.505s5.599 12.505 12.505 12.505z" fill="url(#SVGID_16_)"/><path d="m437.213 74.491c-2.015-13.631-13.718-23.721-27.497-23.721h-40.02c13.779 0 25.482 10.09 27.497 23.721 8.287 56.055 12.829 116.908 12.829 180.509s-4.542 124.454-12.829 180.509c-2.015 13.631-13.718 23.721-27.497 23.721h40.02c13.779 0 25.482-10.09 27.497-23.721 8.287-56.055 12.829-116.907 12.829-180.509s-4.542-124.454-12.829-180.509z" fill="url(#SVGID_17_)"/><path d="m59.958 255c0 38.72 1.693 76.413 4.88 112.633h380.324c3.187-36.22 4.88-73.913 4.88-112.633s-1.693-76.413-4.88-112.633h-380.324c-3.187 36.22-4.88 73.913-4.88 112.633z" fill="url(#SVGID_18_)"/><path d="m410.022 255c0 38.72-1.693 76.413-4.88 112.633h40.02c3.187-36.22 4.88-73.913 4.88-112.633s-1.693-76.413-4.88-112.633h-40.02c3.187 36.22 4.88 73.913 4.88 112.633z" fill="url(#SVGID_19_)"/><g><path d="m386.74 243.576c6.903-8.962 10.709-20.429 9.813-32.809-1.706-23.569-20.756-42.605-44.326-44.292-28.101-2.011-51.522 20.19-51.522 47.862 0 .259.021.513.025.771h-91.46c.004-.258.025-.512.025-.771 0-27.672-23.422-49.874-51.522-47.862-23.571 1.687-42.621 20.723-44.326 44.292-.896 12.379 2.911 23.847 9.813 32.809 5.199 6.75 5.199 16.097 0 22.847-6.903 8.962-10.709 20.429-9.813 32.808 1.706 23.569 20.755 42.605 44.326 44.293 28.101 2.012 51.523-20.19 51.523-47.862 0-.259-.021-.513-.025-.771h91.461c-.004.258-.025.512-.025.771 0 27.672 23.422 49.874 51.523 47.862 23.571-1.687 42.621-20.723 44.326-44.293.896-12.379-2.911-23.847-9.813-32.808-5.202-6.75-5.202-16.096-.003-22.847z" fill="url(#SVGID_20_)"/><path d="m386.74 243.577c6.903-8.962 10.709-20.429 9.813-32.809-1.706-23.57-20.756-42.605-44.326-44.292-8.443-.604-16.457.99-23.547 4.249 15.463 7.141 26.569 22.307 27.853 40.043.896 12.379-2.911 23.847-9.813 32.809-5.199 6.75-5.199 16.097 0 22.847 6.903 8.962 10.709 20.429 9.813 32.809-1.283 17.737-12.39 32.903-27.853 40.043 7.09 3.259 15.104 4.854 23.547 4.249 23.571-1.687 42.621-20.723 44.326-44.292.896-12.379-2.911-23.847-9.813-32.809-5.199-6.751-5.199-16.097 0-22.847z" fill="url(#SVGID_21_)"/><g><path d="m182.16 200.179c2.6 8.428 10.077 14.404 18.893 14.676l8.217.254c.008-.007.012-.011.019-.019.429-28.021-23.161-50.644-51.516-48.615-3.083.221-6.086.745-8.985 1.531 15.9 4.277 28.539 16.511 33.372 32.173z" fill="url(#SVGID_22_)"/><path d="m201.052 295.145c-8.816.272-16.292 6.248-18.893 14.676-4.832 15.662-17.472 27.896-33.373 32.173 2.9.786 5.902 1.31 8.985 1.531 28.355 2.03 51.946-20.594 51.517-48.615-.008-.007-.012-.011-.019-.019z" fill="url(#SVGID_23_)"/></g></g></g></svg>